<svg xmlns="http://www.w3.org/2000/svg" width="680" height="432" viewBox="0 0 340 216"><path fill="red" d="M0 0h340v216H0z"/><path fill="#00f" d="M0 0h340v108H0z"/><path fill="#fff" d="m150.7 126.3-25.6-3.1c-14.1-1.7-47.5-5.7-74.3-8.9-26.9-3.2-48.8-6-48.8-6.3 0-.3 21.9-3.1 48.8-6.3 26.8-3.2 60.2-7.2 74.3-8.9l25.6-3.1 9.4-43.8C165.3 21.7 169.7 2 170 2c.3 0 4.7 19.7 9.9 43.9l9.4 43.8 25.6 3.1c14.1 1.7 47.5 5.7 74.3 8.9 26.9 3.2 48.8 6 48.8 6.3 0 .3-21.9 3.1-48.8 6.3-26.8 3.2-60.2 7.2-74.3 8.9l-25.6 3.1-9.4 43.8c-5.2 24.2-9.6 43.9-9.9 43.9-.3 0-4.7-19.7-9.9-43.9Z"/></svg>